<svg fill="none" height="1320" viewBox="0 0 1320 1320" width="1320" xmlns="http://www.w3.org/2000/svg"><path d="m405.23 413.003h-90.293l-181.937 470.021h85.168c9.031 0 16.607-2.421 22.728-7.264 6.14-4.836 10.391-10.265 12.753-16.285l99.537-284.203c3.231-8.181 6.676-17.86 10.335-29.038 3.646-11.185 41.709-133.231 41.709-133.231z" fill="#1a4cae"/><path d="m645.597 607.319v275.705h109.691v-334.486c-20.573 1.362-40.74 3.331-58.244 5.301l-4.829.598c-12.867 1.593-24.707 7.97-33.293 17.684-8.586 9.715-13.325 22.233-13.325 35.198z" fill="#265ed4"/><path d="m608.046 567.789c-6.62.322-12.492.719-24.966 3.553-187.104 42.508-362.175 166.073-450.08 311.682h93.978c10.594 0 21.678-3.795 27.714-12.442 113.489-162.582 265.159-252.003 332.661-287.237 18.747-9.786 19.734-13.727 20.693-15.556z" fill="#00d5ff"/><path d="m410.036 413.003h-95.099s19.631 6.121 26.886 23.452l146.038 423.02c2.859 6.701 7.417 12.539 13.225 16.937 5.8 4.411 13.433 6.615 22.898 6.612h84.526l-175.992-454.617c-1.756-4.536-4.843-8.435-8.855-11.184-4.013-2.749-8.763-4.22-13.627-4.22z" fill="#265ed4"/><path d="m755.287 548.538v-135.535h-109.691v134.97c-.003 1.562.331 3.105.979 4.526.647 1.421 1.593 2.686 2.772 3.709 1.18 1.023 2.566 1.78 4.065 2.219 1.498.44 3.073.551 4.619.328 32.353-4.647 70.364-8.244 97.256-10.217z" fill="#fb0"/><path d="m948.5 801.435-2.052-1 88.482-90.647c12.47-12.686 24.25-25.212 35.33-37.578 10.77-11.971 20.53-24.811 29.19-38.39 8.31-13.054 14.97-27.084 19.84-41.771 4.96-15.426 7.41-31.549 7.25-47.752 0-19.998-3.49-38.333-10.48-55.006-6.79-16.38-17.09-31.076-30.16-43.056-13.13-12.054-28.99-21.466-47.59-28.235-18.61-6.773-39.52-10.158-62.74-10.155-20.42-.153-40.749 2.725-60.324 8.539-18.25 5.346-35.266 14.238-50.075 26.168s-27.12 26.664-36.227 43.357c-9.442 16.808-15.86 36.49-19.393 58.901 17.62-.832 46.602-1.473 68-1.866 16.081-.297 30.448-9.418 38.378-23.411.021-.038.042-.074.062-.108 4.146-7.07 9.645-13.252 16.183-18.194 10.221-7.849 22.753-11.773 37.596-11.77 18.269 0 31.87 5 40.81 15.001 8.92 9.994 13.37 24.346 13.37 43.056.07 10.946-1.35 21.85-4.19 32.42-2.98 10.675-7.2 20.963-12.58 30.654-6.13 11.009-13.254 21.428-21.295 31.126-9.543 11.579-19.663 22.67-30.322 33.232l-135.48 136.462c-6.055 5.221-10.711 11.87-13.546 19.346-2.45 6.391-3.761 13.163-3.873 20.007v32.259h90.336z" fill="#265ed4"/><path d="m1123.64 801.597c-6.22-5.91-14.71-8.865-25.47-8.867h-18.94c-.07-.003-.13-.035-.21-.035l-68.61.004c-.61 0-1.29.081-1.91.088-2.86.047-5.81.192-8.828.415-7.207.433-14.388 1.233-21.515 2.397-.942.157-2.006.321-3.037.484-4.61.667-8.888 1.302-12.974 1.908-8.171 1.138-15.278 2.043-15.278 2.043-16.043 16.496-34.351 35.243-45.334 46.472-6.329 6.477-9.87 15.176-9.863 24.231v12.287h241.329v-58.045c0-9.673-3.12-17.468-9.36-23.382z" fill="#1a4cae"/></svg>
