<svg id="svg" version="1.1" xmlns="http://www.w3.org/2000/svg" xmlns:xlink="http://www.w3.org/1999/xlink" width="400" height="266.6666666666667" viewBox="0, 0, 400,266.6666666666667"><g id="svgg"><path id="path0" d="M147.414 46.275 C 147.336 46.352,143.926 46.592,139.836 46.807 C 131.356 47.254,129.106 47.626,127.731 48.808 C 127.219 49.248,126.323 49.738,125.739 49.897 C 123.702 50.453,121.193 50.924,120.248 50.929 C 118.748 50.936,116.740 51.732,115.867 52.666 C 114.926 53.672,113.311 54.547,111.910 54.809 C 108.611 55.428,106.337 56.444,105.844 57.520 C 105.354 58.587,104.995 58.830,102.524 59.758 C 101.762 60.044,100.755 60.711,100.198 61.299 C 99.658 61.869,98.642 62.637,97.941 63.005 C 95.122 64.487,94.793 64.677,94.612 64.933 C 93.160 66.983,92.401 67.643,90.811 68.238 C 89.666 68.666,89.442 68.875,89.135 69.795 C 88.680 71.159,87.713 72.059,86.338 72.398 C 85.395 72.631,85.199 72.809,84.883 73.728 C 84.427 75.057,83.096 76.455,82.075 76.679 C 81.647 76.773,81.231 77.049,81.149 77.292 C 80.561 79.041,79.588 80.619,78.279 81.945 C 77.258 82.980,76.455 84.138,75.849 85.451 C 75.303 86.632,74.596 87.688,74.071 88.107 C 72.472 89.384,72.267 89.673,72.264 90.647 C 72.260 92.005,71.121 94.274,69.777 95.599 C 68.428 96.929,68.163 97.541,67.712 100.377 C 67.326 102.803,66.291 105.058,65.355 105.514 C 64.339 106.008,63.970 107.454,63.054 114.533 C 62.567 118.304,62.079 120.326,61.202 122.218 C 59.412 126.077,59.124 145.709,60.794 150.000 C 61.901 152.845,63.005 157.602,63.455 161.467 C 63.871 165.036,64.427 166.875,65.433 168.000 C 66.438 169.125,66.885 170.159,68.026 174.000 C 68.709 176.298,69.062 177.068,69.654 177.557 C 70.724 178.439,71.555 180.315,72.538 184.070 C 72.812 185.115,73.054 185.442,73.908 185.922 C 74.680 186.356,75.119 186.884,75.624 187.986 C 76.819 190.592,76.939 190.787,77.540 191.086 C 78.475 191.553,79.217 192.321,79.761 193.388 C 80.038 193.931,80.926 195.021,81.733 195.809 C 82.540 196.597,83.200 197.322,83.200 197.420 C 83.200 198.215,86.279 201.594,89.196 204.000 C 90.174 204.807,91.295 205.767,91.687 206.133 C 92.079 206.500,93.147 207.280,94.059 207.867 C 94.983 208.460,95.923 209.312,96.180 209.787 C 96.636 210.632,96.866 210.782,99.747 212.107 C 100.843 212.611,101.379 213.055,101.806 213.816 C 102.252 214.610,102.644 214.921,103.525 215.183 C 104.153 215.369,105.170 215.749,105.785 216.027 C 106.401 216.306,107.128 216.533,107.402 216.533 C 107.933 216.533,109.068 217.611,109.575 218.597 C 109.744 218.925,110.209 219.260,110.608 219.342 C 115.098 220.258,118.097 221.347,119.200 222.463 C 119.987 223.259,123.036 224.267,124.660 224.267 C 127.608 224.267,133.349 225.677,135.007 226.808 C 136.775 228.015,137.031 228.019,206.533 227.900 C 276.750 227.780,276.186 227.792,278.267 226.461 C 279.884 225.427,282.615 224.703,286.533 224.272 C 289.979 223.892,291.598 223.387,292.169 222.516 C 292.770 221.599,294.803 220.553,296.804 220.132 C 298.774 219.718,301.067 218.808,301.067 218.441 C 301.067 217.885,303.108 216.702,304.836 216.257 C 306.970 215.709,307.802 215.230,308.971 213.883 C 309.909 212.800,311.706 211.757,313.800 211.078 C 314.570 210.828,315.200 210.475,315.200 210.294 C 315.200 209.551,316.882 207.793,317.879 207.494 C 318.437 207.327,319.173 206.835,319.514 206.400 C 319.854 205.965,320.415 205.244,320.759 204.797 C 321.104 204.351,321.937 203.719,322.611 203.393 C 323.551 202.938,324.000 202.491,324.542 201.470 C 325.072 200.472,325.556 199.982,326.481 199.506 C 327.459 199.003,327.803 198.635,328.152 197.722 C 328.662 196.386,329.447 195.577,330.985 194.803 C 331.915 194.335,332.154 194.035,332.535 192.868 C 333.079 191.198,333.408 190.775,334.659 190.137 C 335.466 189.726,335.700 189.395,336.111 188.090 C 337.069 185.045,337.759 183.808,338.899 183.088 C 340.155 182.295,340.405 181.895,340.658 180.267 C 341.119 177.307,342.234 174.849,343.267 174.515 C 343.979 174.285,344.269 173.538,345.085 169.827 C 345.873 166.244,346.538 164.438,347.568 163.081 C 348.877 161.356,349.656 155.222,349.991 144.000 C 350.072 141.287,350.259 138.322,350.406 137.412 C 350.591 136.273,350.586 135.400,350.392 134.612 C 350.236 133.982,349.998 130.481,349.862 126.833 C 349.436 115.392,348.839 111.406,347.339 110.000 C 346.265 108.994,345.406 106.721,345.092 104.059 C 344.775 101.360,344.237 99.952,343.082 98.797 C 342.015 97.731,341.227 96.313,340.933 94.933 C 340.700 93.837,339.594 91.557,339.232 91.425 C 338.632 91.206,337.080 88.418,336.770 87.002 C 336.426 85.430,335.819 84.290,335.318 84.275 C 334.652 84.255,333.290 82.912,332.603 81.596 C 332.154 80.736,331.411 79.849,330.725 79.353 C 329.634 78.565,328.190 76.593,327.684 75.200 C 327.551 74.833,326.885 74.053,326.203 73.467 C 325.521 72.880,324.168 71.608,323.196 70.640 C 322.217 69.664,320.606 68.427,319.581 67.864 C 317.414 66.673,316.533 65.942,316.533 65.333 C 316.533 64.687,315.534 63.866,313.839 63.121 C 312.744 62.640,312.138 62.158,311.572 61.318 C 310.893 60.311,310.615 60.131,309.269 59.826 C 307.199 59.358,305.885 58.646,304.728 57.366 C 303.578 56.093,302.688 55.599,301.067 55.333 C 298.927 54.982,297.156 54.164,296.167 53.069 C 294.950 51.722,294.105 51.312,292.090 51.092 C 288.395 50.688,283.467 49.076,283.467 48.272 C 283.467 47.713,276.776 46.935,271.954 46.932 C 270.586 46.931,268.277 46.751,266.823 46.532 C 264.201 46.136,147.803 45.886,147.414 46.275 M265.959 75.516 C 266.670 75.762,267.694 76.256,268.235 76.614 C 269.330 77.339,270.588 77.653,274.836 78.265 C 279.253 78.902,281.050 79.519,282.515 80.902 C 283.457 81.792,284.216 82.214,285.677 82.659 C 288.562 83.539,288.770 83.651,289.367 84.664 C 289.671 85.179,290.068 85.600,290.250 85.600 C 291.203 85.600,293.890 87.331,295.382 88.907 C 296.280 89.856,297.631 90.944,298.384 91.325 C 299.199 91.738,299.956 92.365,300.255 92.876 C 301.093 94.304,301.688 94.940,302.667 95.454 C 303.882 96.091,304.313 96.597,305.295 98.540 C 305.741 99.424,306.467 100.413,306.908 100.739 C 307.944 101.505,308.959 103.254,309.329 104.911 C 309.717 106.647,310.279 107.547,311.329 108.112 C 312.484 108.734,313.232 110.145,313.604 112.404 C 314.134 115.624,314.472 116.611,315.389 117.627 C 318.774 121.374,318.861 152.305,315.497 155.853 C 314.903 156.480,314.555 157.341,313.985 159.600 C 313.105 163.086,312.637 164.105,311.249 165.549 C 310.461 166.369,310.031 167.184,309.490 168.883 C 308.741 171.235,308.146 172.025,306.800 172.453 C 306.135 172.665,305.946 172.923,305.681 173.978 C 304.997 176.709,298.671 183.084,295.063 184.680 C 294.242 185.043,293.600 185.500,293.600 185.721 C 293.600 186.526,291.975 187.987,290.639 188.383 C 288.885 188.904,287.896 189.519,287.366 190.417 C 286.740 191.477,285.440 192.193,283.030 192.807 C 279.849 193.617,279.160 193.876,278.000 194.700 C 276.162 196.005,270.859 197.052,266.000 197.070 C 264.827 197.074,263.087 197.275,262.133 197.516 C 259.168 198.267,153.358 198.370,150.448 197.625 C 149.039 197.265,147.110 197.058,144.267 196.964 C 138.457 196.771,135.926 196.199,133.467 194.527 C 132.528 193.888,131.502 193.492,130.000 193.188 C 127.435 192.668,125.509 191.681,124.790 190.517 C 124.046 189.313,123.736 189.108,121.975 188.649 C 120.538 188.275,117.600 186.403,117.600 185.863 C 117.600 185.582,114.083 183.199,113.670 183.199 C 113.489 183.200,113.047 182.737,112.690 182.170 C 112.030 181.125,111.281 180.447,109.603 179.376 C 108.993 178.987,108.259 178.046,107.470 176.642 C 106.173 174.333,105.928 173.992,104.590 172.638 C 103.669 171.705,102.933 170.248,102.933 169.354 C 102.933 169.063,102.615 168.609,102.226 168.346 C 100.384 167.098,99.828 166.296,98.942 163.600 C 98.302 161.651,97.868 160.773,97.332 160.339 C 96.129 159.366,95.456 157.543,95.045 154.152 C 94.840 152.455,94.553 150.287,94.408 149.333 C 94.263 148.380,94.142 146.914,94.139 146.077 C 94.136 145.203,93.910 143.986,93.609 143.223 C 93.031 141.756,92.146 138.350,91.897 136.629 C 91.714 135.370,92.199 133.739,93.210 132.206 C 93.730 131.418,93.867 130.868,93.867 129.555 C 93.867 128.644,93.983 127.232,94.126 126.416 C 94.268 125.601,94.578 123.373,94.816 121.467 C 95.509 115.891,96.169 113.690,97.335 113.066 C 97.988 112.716,98.797 111.153,99.053 109.746 C 99.375 107.974,100.609 106.007,101.796 105.371 C 102.163 105.175,102.642 104.329,103.119 103.037 C 103.879 100.976,104.472 100.173,106.192 98.874 C 106.773 98.435,107.281 97.748,107.475 97.140 C 107.885 95.857,109.253 94.400,110.049 94.400 C 110.501 94.400,110.767 94.144,111.073 93.410 C 111.651 92.026,112.146 91.554,113.566 91.031 C 115.152 90.447,115.660 89.999,116.278 88.641 C 116.641 87.845,117.064 87.410,117.791 87.087 C 119.765 86.208,120.413 85.771,121.467 84.610 C 122.452 83.523,122.715 83.393,124.933 82.897 C 127.697 82.279,128.618 81.852,129.733 80.668 C 130.968 79.356,139.046 77.333,143.046 77.333 C 143.297 77.333,143.907 77.024,144.402 76.647 C 146.828 74.797,141.255 74.944,206.267 75.010 C 260.143 75.064,264.767 75.103,265.959 75.516 " stroke="none" fill="#c24434" fill-rule="evenodd"></path><path id="path1" d="M0.000 133.333 L 0.000 266.667 200.000 266.667 L 400.000 266.667 400.000 133.333 L 400.000 0.000 200.000 0.000 L 0.000 0.000 0.000 133.333 M271.384 40.443 C 274.732 40.696,275.819 41.297,276.153 43.076 L 276.312 43.925 282.223 44.109 C 291.207 44.389,292.509 44.742,293.091 47.053 C 293.404 48.297,294.045 48.524,297.254 48.531 C 299.813 48.536,301.080 49.034,302.686 50.665 C 303.987 51.987,304.370 52.220,305.496 52.381 C 308.760 52.848,309.662 53.466,310.000 55.467 C 310.191 56.600,310.180 56.594,312.939 56.886 C 314.841 57.087,316.565 58.116,317.265 59.467 C 317.926 60.744,318.208 60.935,319.830 61.200 C 321.159 61.418,322.077 62.352,322.293 63.708 C 322.475 64.845,322.567 64.909,324.438 65.199 C 325.865 65.421,326.578 66.207,326.856 67.865 C 327.078 69.194,327.082 69.198,328.316 69.423 C 329.833 69.700,330.545 70.423,330.850 71.996 C 331.046 73.007,331.205 73.229,331.874 73.427 C 334.272 74.136,334.460 74.338,335.172 76.971 C 335.431 77.929,335.590 78.097,336.372 78.244 C 337.761 78.504,338.532 79.475,339.054 81.624 C 339.489 83.412,341.013 85.600,341.825 85.600 C 342.553 85.600,343.221 87.234,343.589 89.915 C 343.733 90.962,343.903 91.248,344.647 91.686 C 346.352 92.692,347.457 94.822,347.788 97.740 L 348.081 100.315 349.465 101.768 C 351.287 103.679,351.447 104.272,351.795 110.442 L 352.091 115.685 352.868 115.840 C 355.743 116.415,355.761 116.523,355.924 133.867 C 356.120 154.817,355.818 156.998,352.435 159.067 C 352.071 159.289,351.959 160.172,351.753 164.400 C 351.441 170.833,350.919 172.267,348.887 172.267 C 348.399 172.267,347.997 172.357,347.994 172.467 C 347.859 176.722,347.052 181.067,346.396 181.067 C 345.959 181.067,343.809 183.392,343.667 184.017 C 342.849 187.616,342.186 188.616,340.396 188.952 C 339.382 189.142,339.354 189.201,339.066 191.727 C 338.889 193.273,338.579 193.867,337.949 193.867 C 337.377 193.867,335.477 195.532,335.471 196.039 C 335.458 197.256,333.520 200.258,332.397 200.801 C 331.011 201.472,330.512 202.017,330.279 203.114 C 330.049 204.197,328.998 205.249,327.914 205.481 C 326.799 205.719,326.532 205.959,325.875 207.315 C 325.511 208.069,324.991 208.626,324.340 208.961 C 322.571 209.871,321.514 210.667,321.041 211.445 C 320.406 212.489,317.861 214.131,316.618 214.298 C 314.531 214.578,314.469 214.613,314.277 215.638 C 313.992 217.159,312.959 217.993,310.872 218.386 C 309.290 218.685,309.026 218.824,308.565 219.606 C 307.682 221.102,305.362 222.376,302.981 222.673 C 301.588 222.846,300.848 223.065,300.667 223.359 C 298.942 226.154,296.096 227.136,289.555 227.194 C 288.986 227.199,288.808 227.358,288.671 227.981 C 287.945 231.284,290.972 231.168,205.467 231.171 C 122.616 231.175,125.374 231.260,122.672 228.614 C 121.208 227.180,120.342 226.933,116.774 226.933 C 113.425 226.933,111.618 225.975,111.308 224.033 L 111.137 222.964 109.635 222.813 C 104.862 222.332,103.850 221.886,103.200 219.976 C 102.704 218.518,102.556 218.409,101.067 218.404 C 100.407 218.401,99.487 218.189,99.023 217.933 C 98.559 217.676,97.684 217.192,97.079 216.856 C 96.474 216.520,95.842 215.945,95.675 215.579 C 95.358 214.883,94.498 214.410,92.610 213.892 C 91.324 213.540,90.723 212.832,90.492 211.396 C 90.363 210.591,90.192 210.362,89.632 210.236 C 86.603 209.558,86.471 209.454,86.007 207.394 L 85.694 206.006 84.383 205.786 C 82.679 205.500,82.212 205.041,81.949 203.391 C 81.734 202.042,81.727 202.033,80.446 201.706 C 79.737 201.526,78.930 201.172,78.652 200.920 C 78.132 200.450,78.096 200.365,77.613 198.496 C 77.365 197.533,77.213 197.370,76.425 197.222 C 75.032 196.961,74.270 196.182,73.611 194.346 C 73.235 193.301,72.717 192.433,72.240 192.050 C 70.746 190.849,69.544 188.662,69.351 186.794 C 69.148 184.831,69.255 184.988,67.851 184.586 C 65.875 184.020,65.072 182.363,65.063 178.830 C 65.057 176.752,64.874 176.340,63.872 176.152 C 61.939 175.789,61.068 173.948,61.065 170.215 C 61.064 169.070,60.987 167.153,60.894 165.956 L 60.724 163.779 59.859 163.616 C 58.764 163.411,57.792 162.447,57.366 161.145 C 56.540 158.620,56.298 119.744,57.071 113.867 C 57.400 111.365,58.458 109.159,59.733 108.317 C 60.839 107.587,61.029 106.865,61.051 103.306 C 61.071 100.160,61.364 99.372,63.170 97.600 L 64.664 96.133 65.104 93.519 C 65.511 91.102,66.053 89.867,66.708 89.867 C 67.563 89.867,68.986 87.736,69.451 85.762 C 69.992 83.464,70.483 82.823,72.063 82.350 C 73.108 82.036,73.131 81.997,73.468 79.910 C 73.700 78.471,74.128 77.638,74.733 77.445 C 75.449 77.218,77.333 75.292,77.333 74.788 C 77.333 74.199,78.545 73.067,79.175 73.067 C 79.467 73.067,79.803 72.909,79.920 72.717 C 80.037 72.525,80.426 72.168,80.785 71.923 C 81.143 71.678,81.563 71.085,81.718 70.606 C 81.889 70.075,82.314 69.570,82.800 69.318 C 83.903 68.745,85.600 67.061,85.600 66.539 C 85.600 65.991,86.779 64.800,87.321 64.800 C 87.831 64.800,89.753 62.912,89.984 62.184 C 90.205 61.486,90.726 61.273,92.667 61.087 L 94.267 60.933 94.415 59.867 C 94.697 57.832,95.156 57.445,98.054 56.797 C 99.182 56.544,99.539 56.322,99.959 55.610 C 100.628 54.475,103.145 52.810,104.448 52.638 C 107.211 52.275,107.132 52.311,107.315 51.338 C 107.630 49.658,109.820 48.783,114.626 48.419 L 116.852 48.250 118.359 46.693 C 120.387 44.599,122.946 44.077,131.507 44.010 C 132.637 44.001,132.796 43.917,133.297 43.069 C 134.384 41.227,136.386 40.609,142.368 40.268 C 147.056 40.002,267.719 40.165,271.384 40.443 M140.732 81.264 C 138.985 81.355,138.919 81.384,138.568 82.224 C 137.891 83.845,136.033 84.630,131.799 85.086 C 128.915 85.397,127.261 86.312,127.211 87.625 C 127.189 88.207,126.215 88.788,124.789 89.070 C 123.988 89.228,123.074 89.412,122.758 89.478 C 122.402 89.552,121.967 90.042,121.619 90.761 C 121.098 91.838,118.094 93.867,117.021 93.867 C 116.536 93.867,114.676 95.600,114.671 96.057 C 114.669 96.309,114.331 96.909,113.922 97.391 C 113.512 97.872,112.965 98.602,112.707 99.013 C 112.449 99.423,111.887 99.972,111.459 100.232 C 110.668 100.714,109.875 101.764,108.961 103.540 C 108.624 104.193,108.068 104.711,107.306 105.080 C 106.050 105.688,105.983 105.815,105.717 108.080 C 105.547 109.525,105.094 110.400,104.514 110.400 C 104.378 110.400,103.792 110.875,103.211 111.456 L 102.156 112.511 101.869 115.922 C 101.454 120.862,100.965 121.878,98.812 122.282 L 97.946 122.445 97.774 125.422 C 97.226 134.938,97.684 149.671,98.533 149.824 C 100.428 150.165,101.846 154.007,101.861 158.845 C 101.868 160.756,102.036 161.333,102.588 161.333 C 104.331 161.333,105.445 162.853,105.717 165.600 C 106.096 169.429,106.015 169.249,107.441 169.438 C 108.926 169.635,109.722 170.351,109.991 171.733 C 110.327 173.457,110.382 173.529,111.492 173.707 C 112.860 173.925,113.807 174.865,114.023 176.219 C 114.195 177.295,114.872 177.867,115.974 177.867 C 116.665 177.867,117.817 179.025,118.008 179.911 C 118.356 181.532,118.614 181.866,119.528 181.878 C 120.575 181.892,122.491 182.539,122.618 182.921 C 122.810 183.497,125.068 185.600,125.495 185.600 C 127.961 185.600,130.287 187.082,130.569 188.833 C 130.746 189.937,131.441 190.122,135.467 190.136 C 139.842 190.151,142.451 191.244,142.821 193.217 L 142.981 194.073 151.291 194.260 C 155.861 194.363,183.730 194.407,213.221 194.357 L 266.842 194.267 268.421 192.635 C 270.367 190.624,270.899 190.439,275.672 190.114 L 279.477 189.856 280.492 188.841 C 281.051 188.283,281.587 187.620,281.683 187.368 C 281.905 186.791,283.124 186.278,285.277 185.855 C 286.509 185.614,287.031 185.377,287.244 184.963 C 287.692 184.091,288.585 183.200,289.011 183.200 C 289.223 183.200,289.806 182.840,290.307 182.400 C 290.809 181.960,291.394 181.600,291.609 181.600 C 292.111 181.600,294.026 179.691,294.258 178.959 C 294.491 178.227,295.119 177.912,296.845 177.664 L 298.261 177.460 298.447 176.159 C 298.723 174.231,299.150 173.403,300.025 173.098 C 300.451 172.949,300.800 172.727,300.800 172.605 C 300.800 172.482,301.160 172.169,301.600 171.909 C 302.040 171.649,302.400 171.216,302.400 170.947 C 302.400 170.380,303.638 168.690,305.273 167.024 C 306.333 165.945,306.432 165.718,306.672 163.829 C 306.969 161.482,308.220 159.258,309.749 158.355 C 310.753 157.763,310.795 157.555,311.058 151.908 C 311.293 146.872,311.961 145.298,314.030 144.910 L 314.933 144.741 314.933 137.594 L 314.933 130.448 313.782 129.890 C 311.608 128.838,311.455 128.171,310.775 116.764 L 310.621 114.194 309.609 114.032 C 307.846 113.750,306.468 111.444,306.403 108.667 C 306.396 108.373,306.093 107.851,305.729 107.505 C 305.365 107.160,305.067 106.776,305.067 106.651 C 305.067 106.527,304.656 106.230,304.155 105.992 C 303.227 105.552,303.164 105.406,302.522 102.235 C 302.435 101.809,302.139 101.626,301.319 101.495 C 299.929 101.273,298.994 100.341,298.773 98.957 C 298.574 97.714,298.399 97.540,296.910 97.116 C 295.618 96.747,295.066 96.197,294.580 94.794 C 294.259 93.867,294.084 93.722,292.935 93.428 C 291.308 93.013,290.718 92.420,290.300 90.776 L 289.967 89.467 288.108 89.299 C 285.471 89.061,283.796 88.198,282.999 86.668 C 282.255 85.238,282.147 85.192,279.031 84.978 C 275.446 84.731,274.044 84.015,273.715 82.263 L 273.555 81.412 270.736 81.239 C 267.903 81.066,144.102 81.090,140.732 81.264 " stroke="none" fill="#3c3434" fill-rule="evenodd"></path><path id="path2" d="M146.133 44.268 C 145.327 44.532,143.647 44.827,142.400 44.922 C 141.153 45.018,138.453 45.273,136.400 45.489 C 128.658 46.302,127.389 46.581,124.267 48.149 C 122.252 49.161,119.999 49.867,118.783 49.867 C 117.617 49.867,114.693 51.002,112.998 52.114 C 112.229 52.618,110.340 53.462,108.800 53.988 C 106.309 54.840,105.862 55.093,104.754 56.278 C 103.969 57.119,102.935 57.863,101.954 58.295 C 101.100 58.671,99.800 59.426,99.067 59.973 C 98.333 60.519,96.957 61.439,96.008 62.017 C 95.059 62.594,93.454 63.845,92.442 64.797 C 91.429 65.748,90.189 66.775,89.685 67.080 C 89.181 67.384,88.326 68.216,87.784 68.930 C 87.243 69.643,86.104 70.776,85.252 71.447 C 84.401 72.118,83.471 73.059,83.187 73.538 C 82.902 74.017,82.119 74.797,81.447 75.271 C 80.762 75.753,79.832 76.777,79.330 77.599 C 78.838 78.406,77.939 79.547,77.333 80.133 C 76.726 80.720,75.688 82.191,75.025 83.402 C 74.363 84.613,73.424 86.079,72.938 86.661 C 72.453 87.242,71.790 88.291,71.465 88.992 C 69.911 92.353,69.559 92.991,68.838 93.751 C 67.766 94.884,67.376 95.720,66.463 98.848 C 66.027 100.342,65.445 101.920,65.169 102.355 C 63.176 105.497,63.074 105.754,62.196 109.857 C 61.708 112.136,61.243 114.420,61.163 114.933 C 61.082 115.447,60.848 116.242,60.644 116.702 C 57.729 123.243,57.673 151.456,60.564 156.858 C 60.891 157.468,62.025 161.943,62.538 164.644 C 63.152 167.875,63.575 169.071,64.751 170.890 C 65.355 171.824,66.259 173.843,66.797 175.458 C 67.387 177.227,68.154 178.906,68.771 179.776 C 69.739 181.141,70.467 182.553,71.716 185.487 C 72.033 186.231,72.713 187.237,73.226 187.721 C 73.740 188.206,74.504 189.277,74.924 190.101 C 75.344 190.926,76.249 192.140,76.936 192.800 C 77.622 193.460,78.652 194.682,79.224 195.517 C 79.796 196.351,80.924 197.747,81.732 198.619 C 82.539 199.491,83.200 200.273,83.200 200.356 C 83.200 200.785,84.938 202.993,85.679 203.506 C 86.149 203.830,87.373 204.834,88.400 205.735 C 89.427 206.636,91.047 207.890,92.000 208.520 C 92.953 209.151,94.138 210.138,94.633 210.713 C 95.136 211.298,96.326 212.160,97.330 212.665 C 98.318 213.162,99.593 214.066,100.163 214.673 C 101.275 215.856,102.347 216.532,103.120 216.536 C 103.972 216.541,106.339 217.800,107.519 218.876 C 108.885 220.123,109.461 220.444,111.288 220.976 C 112.046 221.197,113.876 222.013,115.353 222.789 C 118.314 224.345,119.522 224.745,123.867 225.604 C 125.480 225.923,127.640 226.522,128.667 226.936 C 130.853 227.816,134.940 228.654,139.067 229.068 C 143.011 229.464,270.270 229.276,274.533 228.868 C 277.931 228.543,280.629 227.934,282.570 227.056 C 283.323 226.715,285.423 226.116,287.236 225.726 C 291.524 224.804,293.690 224.103,294.285 223.447 C 295.092 222.554,296.274 221.969,299.333 220.945 C 301.504 220.219,302.594 219.689,303.524 218.908 C 304.744 217.882,307.244 216.541,307.947 216.536 C 308.564 216.531,309.830 215.750,311.217 214.518 C 311.963 213.856,313.357 212.944,314.315 212.491 C 315.566 211.900,316.211 211.406,316.606 210.737 C 316.922 210.201,317.916 209.319,318.951 208.655 C 319.940 208.022,320.968 207.131,321.237 206.675 C 321.507 206.219,322.466 205.365,323.370 204.776 C 324.274 204.187,325.329 203.250,325.715 202.693 C 326.101 202.137,326.895 201.280,327.480 200.788 C 328.066 200.297,328.897 199.349,329.327 198.681 C 329.757 198.013,330.835 196.829,331.723 196.049 C 332.611 195.269,333.530 194.249,333.764 193.782 C 333.998 193.315,334.826 192.273,335.604 191.467 C 336.683 190.348,337.251 189.431,338.001 187.600 C 338.704 185.885,339.346 184.818,340.250 183.860 C 341.242 182.810,341.672 182.052,342.239 180.351 C 342.636 179.158,343.425 177.534,343.992 176.742 C 344.676 175.787,345.394 174.186,346.127 171.985 C 346.735 170.160,347.705 167.738,348.283 166.604 C 348.970 165.254,349.424 163.917,349.595 162.737 C 349.739 161.745,350.152 158.873,350.513 156.355 C 350.884 153.771,351.467 150.916,351.852 149.802 C 352.413 148.174,352.536 147.314,352.551 144.913 C 352.561 143.311,352.714 140.560,352.891 138.800 C 353.144 136.294,353.143 135.195,352.890 133.733 C 352.712 132.707,352.559 130.924,352.550 129.772 C 352.541 128.620,352.352 126.976,352.130 126.120 C 351.908 125.264,351.492 123.087,351.204 121.282 C 350.917 119.477,350.503 117.040,350.284 115.867 C 350.065 114.693,349.881 113.118,349.876 112.367 C 349.864 110.667,349.398 109.320,348.044 107.075 C 347.417 106.036,346.806 104.542,346.538 103.396 C 345.666 99.669,345.027 98.030,343.926 96.703 C 343.335 95.990,342.521 94.598,342.119 93.610 C 341.123 91.162,340.589 90.163,339.694 89.073 C 339.276 88.562,338.933 88.057,338.933 87.949 C 338.933 87.014,336.887 83.627,335.973 83.050 C 335.339 82.650,334.612 81.822,334.107 80.927 C 333.651 80.120,332.557 78.664,331.675 77.691 C 330.793 76.718,329.553 75.120,328.920 74.141 C 328.268 73.133,327.303 72.053,326.695 71.651 C 326.105 71.260,325.150 70.301,324.572 69.519 C 323.774 68.439,322.958 67.772,321.161 66.735 C 319.848 65.976,318.267 64.796,317.600 64.076 C 316.940 63.363,315.808 62.436,315.083 62.016 C 314.359 61.596,313.276 60.800,312.675 60.246 C 312.075 59.693,310.687 58.825,309.592 58.319 C 308.496 57.813,306.973 56.854,306.206 56.190 C 305.262 55.371,304.229 54.789,303.006 54.387 C 300.765 53.650,299.635 53.088,297.777 51.786 C 296.328 50.772,294.622 50.174,291.618 49.628 C 290.749 49.471,288.994 48.808,287.720 48.155 C 285.153 46.841,282.884 46.286,278.933 46.004 C 277.540 45.905,275.500 45.654,274.400 45.445 C 273.300 45.237,271.473 45.067,270.339 45.067 C 268.792 45.067,267.838 44.901,266.508 44.400 L 264.737 43.733 206.168 43.761 C 150.529 43.787,147.527 43.812,146.133 44.268 M266.823 46.532 C 268.277 46.751,270.586 46.931,271.954 46.932 C 276.776 46.935,283.467 47.713,283.467 48.272 C 283.467 49.076,288.395 50.688,292.090 51.092 C 294.105 51.312,294.950 51.722,296.167 53.069 C 297.156 54.164,298.927 54.982,301.067 55.333 C 302.688 55.599,303.578 56.093,304.728 57.366 C 305.885 58.646,307.199 59.358,309.269 59.826 C 310.615 60.131,310.893 60.311,311.572 61.318 C 312.138 62.158,312.744 62.640,313.839 63.121 C 315.534 63.866,316.533 64.687,316.533 65.333 C 316.533 65.942,317.414 66.673,319.581 67.864 C 320.606 68.427,322.217 69.664,323.196 70.640 C 324.168 71.608,325.521 72.880,326.203 73.467 C 326.885 74.053,327.551 74.833,327.684 75.200 C 328.190 76.593,329.634 78.565,330.725 79.353 C 331.411 79.849,332.154 80.736,332.603 81.596 C 333.290 82.912,334.652 84.255,335.318 84.275 C 335.819 84.290,336.426 85.430,336.770 87.002 C 337.080 88.418,338.632 91.206,339.232 91.425 C 339.594 91.557,340.700 93.837,340.933 94.933 C 341.227 96.313,342.015 97.731,343.082 98.797 C 344.237 99.952,344.775 101.360,345.092 104.059 C 345.406 106.721,346.265 108.994,347.339 110.000 C 348.839 111.406,349.436 115.392,349.862 126.833 C 349.998 130.481,350.236 133.982,350.392 134.612 C 350.586 135.400,350.591 136.273,350.406 137.412 C 350.259 138.322,350.072 141.287,349.991 144.000 C 349.656 155.222,348.877 161.356,347.568 163.081 C 346.538 164.438,345.873 166.244,345.085 169.827 C 344.269 173.538,343.979 174.285,343.267 174.515 C 342.234 174.849,341.119 177.307,340.658 180.267 C 340.405 181.895,340.155 182.295,338.899 183.088 C 337.759 183.808,337.069 185.045,336.111 188.090 C 335.700 189.395,335.466 189.726,334.659 190.137 C 333.408 190.775,333.079 191.198,332.535 192.868 C 332.154 194.035,331.915 194.335,330.985 194.803 C 329.447 195.577,328.662 196.386,328.152 197.722 C 327.803 198.635,327.459 199.003,326.481 199.506 C 325.556 199.982,325.072 200.472,324.542 201.470 C 324.000 202.491,323.551 202.938,322.611 203.393 C 321.937 203.719,321.104 204.351,320.759 204.797 C 320.415 205.244,319.854 205.965,319.514 206.400 C 319.173 206.835,318.437 207.327,317.879 207.494 C 316.882 207.793,315.200 209.551,315.200 210.294 C 315.200 210.475,314.570 210.828,313.800 211.078 C 311.706 211.757,309.909 212.800,308.971 213.883 C 307.802 215.230,306.970 215.709,304.836 216.257 C 303.108 216.702,301.067 217.885,301.067 218.441 C 301.067 218.808,298.774 219.718,296.804 220.132 C 294.803 220.553,292.770 221.599,292.169 222.516 C 291.598 223.387,289.979 223.892,286.533 224.272 C 282.615 224.703,279.884 225.427,278.267 226.461 C 276.186 227.792,276.750 227.780,206.533 227.900 C 137.031 228.019,136.775 228.015,135.007 226.808 C 133.349 225.677,127.608 224.267,124.660 224.267 C 123.036 224.267,119.987 223.259,119.200 222.463 C 118.097 221.347,115.098 220.258,110.608 219.342 C 110.209 219.260,109.744 218.925,109.575 218.597 C 109.068 217.611,107.933 216.533,107.402 216.533 C 107.128 216.533,106.401 216.306,105.785 216.027 C 105.170 215.749,104.153 215.369,103.525 215.183 C 102.644 214.921,102.252 214.610,101.806 213.816 C 101.379 213.055,100.843 212.611,99.747 212.107 C 96.866 210.782,96.636 210.632,96.180 209.787 C 95.923 209.312,94.983 208.460,94.059 207.867 C 93.147 207.280,92.079 206.500,91.687 206.133 C 91.295 205.767,90.174 204.807,89.196 204.000 C 86.279 201.594,83.200 198.215,83.200 197.420 C 83.200 197.322,82.540 196.597,81.733 195.809 C 80.926 195.021,80.038 193.931,79.761 193.388 C 79.217 192.321,78.475 191.553,77.540 191.086 C 76.939 190.787,76.819 190.592,75.624 187.986 C 75.119 186.884,74.680 186.356,73.908 185.922 C 73.054 185.442,72.812 185.115,72.538 184.070 C 71.555 180.315,70.724 178.439,69.654 177.557 C 69.062 177.068,68.709 176.298,68.026 174.000 C 66.885 170.159,66.438 169.125,65.433 168.000 C 64.427 166.875,63.871 165.036,63.455 161.467 C 63.005 157.602,61.901 152.845,60.794 150.000 C 59.124 145.709,59.412 126.077,61.202 122.218 C 62.079 120.326,62.567 118.304,63.054 114.533 C 63.970 107.454,64.339 106.008,65.355 105.514 C 66.291 105.058,67.326 102.803,67.712 100.377 C 68.163 97.541,68.428 96.929,69.777 95.599 C 71.121 94.274,72.260 92.005,72.264 90.647 C 72.267 89.673,72.472 89.384,74.071 88.107 C 74.596 87.688,75.303 86.632,75.849 85.451 C 76.455 84.138,77.258 82.980,78.279 81.945 C 79.588 80.619,80.561 79.041,81.149 77.292 C 81.231 77.049,81.647 76.773,82.075 76.679 C 83.096 76.455,84.427 75.057,84.883 73.728 C 85.199 72.809,85.395 72.631,86.338 72.398 C 87.713 72.059,88.680 71.159,89.135 69.795 C 89.442 68.875,89.666 68.666,90.811 68.238 C 92.401 67.643,93.160 66.983,94.612 64.933 C 94.793 64.677,95.122 64.487,97.941 63.005 C 98.642 62.637,99.658 61.869,100.198 61.299 C 100.755 60.711,101.762 60.044,102.524 59.758 C 104.995 58.830,105.354 58.587,105.844 57.520 C 106.337 56.444,108.611 55.428,111.910 54.809 C 113.311 54.547,114.926 53.672,115.867 52.666 C 116.740 51.732,118.748 50.936,120.248 50.929 C 121.193 50.924,123.702 50.453,125.739 49.897 C 126.323 49.738,127.219 49.248,127.731 48.808 C 129.106 47.626,131.356 47.254,139.836 46.807 C 143.926 46.592,147.336 46.352,147.414 46.275 C 147.803 45.886,264.201 46.136,266.823 46.532 M146.585 75.456 C 145.880 75.733,144.898 76.269,144.402 76.647 C 143.907 77.024,143.297 77.333,143.046 77.333 C 139.046 77.333,130.968 79.356,129.733 80.668 C 128.618 81.852,127.697 82.279,124.933 82.897 C 122.715 83.393,122.452 83.523,121.467 84.610 C 120.413 85.771,119.765 86.208,117.791 87.087 C 117.064 87.410,116.641 87.845,116.278 88.641 C 115.660 89.999,115.152 90.447,113.566 91.031 C 112.146 91.554,111.651 92.026,111.073 93.410 C 110.767 94.144,110.501 94.400,110.049 94.400 C 109.253 94.400,107.885 95.857,107.475 97.140 C 107.281 97.748,106.773 98.435,106.192 98.874 C 104.472 100.173,103.879 100.976,103.119 103.037 C 102.642 104.329,102.163 105.175,101.796 105.371 C 100.609 106.007,99.375 107.974,99.053 109.746 C 98.797 111.153,97.988 112.716,97.335 113.066 C 96.169 113.690,95.509 115.891,94.816 121.467 C 94.578 123.373,94.268 125.601,94.126 126.416 C 93.983 127.232,93.867 128.644,93.867 129.555 C 93.867 130.868,93.730 131.418,93.210 132.206 C 92.199 133.739,91.714 135.370,91.897 136.629 C 92.146 138.350,93.031 141.756,93.609 143.223 C 93.910 143.986,94.136 145.203,94.139 146.077 C 94.142 146.914,94.263 148.380,94.408 149.333 C 94.553 150.287,94.840 152.455,95.045 154.152 C 95.456 157.543,96.129 159.366,97.332 160.339 C 97.868 160.773,98.302 161.651,98.942 163.600 C 99.828 166.296,100.384 167.098,102.226 168.346 C 102.615 168.609,102.933 169.063,102.933 169.354 C 102.933 170.248,103.669 171.705,104.590 172.638 C 105.928 173.992,106.173 174.333,107.470 176.642 C 108.259 178.046,108.993 178.987,109.603 179.376 C 111.281 180.447,112.030 181.125,112.690 182.170 C 113.047 182.737,113.489 183.200,113.670 183.199 C 114.083 183.199,117.600 185.582,117.600 185.863 C 117.600 186.403,120.538 188.275,121.975 188.649 C 123.736 189.108,124.046 189.313,124.790 190.517 C 125.509 191.681,127.435 192.668,130.000 193.188 C 131.502 193.492,132.528 193.888,133.467 194.527 C 135.926 196.199,138.457 196.771,144.267 196.964 C 147.110 197.058,149.039 197.265,150.448 197.625 C 153.358 198.370,259.168 198.267,262.133 197.516 C 263.087 197.275,264.827 197.074,266.000 197.070 C 270.859 197.052,276.162 196.005,278.000 194.700 C 279.160 193.876,279.849 193.617,283.030 192.807 C 285.440 192.193,286.740 191.477,287.366 190.417 C 287.896 189.519,288.885 188.904,290.639 188.383 C 291.975 187.987,293.600 186.526,293.600 185.721 C 293.600 185.500,294.242 185.043,295.063 184.680 C 298.671 183.084,304.997 176.709,305.681 173.978 C 305.946 172.923,306.135 172.665,306.800 172.453 C 308.146 172.025,308.741 171.235,309.490 168.883 C 310.031 167.184,310.461 166.369,311.249 165.549 C 312.637 164.105,313.105 163.086,313.985 159.600 C 314.555 157.341,314.903 156.480,315.497 155.853 C 318.861 152.305,318.774 121.374,315.389 117.627 C 314.472 116.611,314.134 115.624,313.604 112.404 C 313.232 110.145,312.484 108.734,311.329 108.112 C 310.279 107.547,309.717 106.647,309.329 104.911 C 308.959 103.254,307.944 101.505,306.908 100.739 C 306.467 100.413,305.741 99.424,305.295 98.540 C 304.313 96.597,303.882 96.091,302.667 95.454 C 301.688 94.940,301.093 94.304,300.255 92.876 C 299.956 92.365,299.199 91.738,298.384 91.325 C 297.631 90.944,296.280 89.856,295.382 88.907 C 293.890 87.331,291.203 85.600,290.250 85.600 C 290.068 85.600,289.671 85.179,289.367 84.664 C 288.770 83.651,288.562 83.539,285.677 82.659 C 284.216 82.214,283.457 81.792,282.515 80.902 C 281.050 79.519,279.253 78.902,274.836 78.265 C 270.588 77.653,269.330 77.339,268.235 76.614 C 265.723 74.952,270.461 75.074,206.267 75.010 C 149.531 74.953,147.830 74.965,146.585 75.456 M263.867 77.855 C 275.402 79.724,276.096 79.889,279.333 81.529 C 280.360 82.050,282.335 82.883,283.723 83.380 C 286.144 84.249,286.555 84.486,287.876 85.780 C 288.202 86.099,289.221 86.739,290.140 87.203 C 291.059 87.667,292.663 88.850,293.705 89.832 C 294.747 90.815,296.080 91.907,296.667 92.259 C 298.438 93.324,303.080 98.223,304.830 100.876 C 305.722 102.228,306.610 103.513,306.804 103.733 C 306.997 103.953,307.662 105.153,308.280 106.400 C 308.898 107.647,309.851 109.156,310.399 109.755 C 311.415 110.865,312.349 112.948,312.673 114.822 C 312.999 116.714,313.807 119.083,314.771 120.975 C 317.542 126.410,317.312 147.565,314.420 153.293 C 313.984 154.158,313.319 156.111,312.943 157.633 C 312.113 160.995,311.745 161.838,310.412 163.432 C 309.717 164.262,309.092 165.492,308.504 167.185 C 307.757 169.338,307.425 169.911,306.217 171.129 C 305.439 171.912,304.612 172.923,304.378 173.375 C 303.212 175.631,296.509 182.263,294.223 183.424 C 293.612 183.734,292.666 184.532,292.121 185.198 C 291.381 186.101,290.550 186.683,288.853 187.490 C 287.601 188.084,286.087 188.962,285.489 189.441 C 283.681 190.885,282.639 191.397,280.288 191.996 C 279.053 192.311,277.013 192.964,275.754 193.448 C 271.142 195.223,269.884 195.525,266.133 195.759 C 264.153 195.883,261.093 196.105,259.333 196.253 C 253.624 196.731,152.857 196.621,150.310 196.133 C 149.160 195.913,147.112 195.733,145.759 195.733 C 142.031 195.733,138.487 194.950,136.238 193.629 C 135.741 193.336,133.973 192.728,132.310 192.277 C 128.783 191.320,128.067 190.985,126.543 189.581 C 125.922 189.008,124.492 188.120,123.365 187.606 C 122.239 187.093,120.751 186.149,120.058 185.510 C 119.366 184.870,118.200 184.001,117.467 183.577 C 116.733 183.154,115.233 181.960,114.133 180.924 C 113.033 179.888,111.628 178.650,111.011 178.173 C 110.286 177.613,109.397 176.454,108.502 174.905 C 107.676 173.474,106.837 172.359,106.424 172.146 C 105.988 171.920,105.299 170.963,104.563 169.561 C 103.920 168.336,102.876 166.793,102.244 166.133 C 101.364 165.215,100.896 164.370,100.252 162.533 C 99.380 160.050,98.957 159.110,97.792 157.067 C 96.853 155.422,95.581 148.917,95.210 143.867 C 95.049 141.667,94.803 139.387,94.665 138.800 C 94.291 137.217,94.353 134.707,94.803 133.224 C 95.021 132.504,95.201 131.064,95.202 130.024 C 95.208 124.916,96.238 120.292,98.426 115.554 C 98.980 114.355,99.682 112.566,99.987 111.578 C 100.626 109.511,101.223 108.458,102.392 107.340 C 103.303 106.468,103.643 105.867,104.838 103.009 C 105.458 101.526,105.859 100.950,106.583 100.503 C 107.100 100.183,107.948 99.258,108.466 98.448 C 109.615 96.652,113.613 92.674,114.959 91.987 C 115.498 91.712,116.388 90.876,116.936 90.130 C 117.674 89.124,118.387 88.544,119.699 87.881 C 120.671 87.389,122.286 86.380,123.288 85.638 C 125.121 84.280,127.492 83.200,128.639 83.200 C 129.241 83.200,130.840 82.448,133.368 80.976 C 134.764 80.163,138.113 79.368,141.883 78.955 C 143.286 78.801,145.146 78.445,146.017 78.164 C 147.709 77.618,260.576 77.322,263.867 77.855 " stroke="none" fill="#8a4234" fill-rule="evenodd"></path><path id="path3" d="M146.133 41.898 C 145.033 42.188,143.128 42.602,141.899 42.818 C 140.669 43.034,139.349 43.384,138.965 43.594 C 138.293 43.963,134.994 44.457,129.067 45.075 C 124.597 45.541,123.010 46.041,121.467 47.465 C 120.473 48.382,119.237 48.739,112.584 50.032 C 112.246 50.098,111.466 50.610,110.851 51.171 C 110.077 51.878,109.064 52.417,107.554 52.926 C 104.798 53.855,103.873 54.420,103.309 55.522 C 102.771 56.572,102.582 56.713,101.207 57.093 C 99.331 57.612,97.121 58.897,96.258 59.971 C 95.795 60.547,95.218 61.088,94.975 61.175 C 93.528 61.691,91.797 62.940,91.061 64.000 C 90.544 64.745,89.780 65.415,89.047 65.768 C 87.672 66.430,87.173 66.941,86.494 68.385 C 86.136 69.146,85.642 69.624,84.700 70.118 C 83.717 70.634,83.226 71.124,82.683 72.133 C 82.165 73.095,81.673 73.604,80.916 73.961 C 79.428 74.662,78.959 75.142,78.197 76.746 C 77.809 77.563,77.233 78.311,76.830 78.520 C 75.819 79.046,75.093 79.932,74.261 81.653 C 73.857 82.489,72.887 83.976,72.104 84.958 C 71.322 85.940,70.488 87.296,70.251 87.972 C 69.423 90.332,69.010 91.072,68.101 91.826 C 66.879 92.838,66.239 94.169,65.564 97.098 C 65.123 99.015,64.818 99.742,64.137 100.501 C 62.445 102.386,61.544 105.044,61.095 109.472 C 60.904 111.359,60.759 111.783,59.929 112.870 C 57.929 115.489,57.484 119.808,57.474 136.667 C 57.464 153.889,57.934 158.322,60.006 160.539 C 60.938 161.537,60.942 161.551,61.470 165.733 C 62.032 170.183,62.461 171.522,63.687 172.656 C 64.516 173.423,64.830 174.031,65.446 176.062 C 66.738 180.320,66.973 180.838,68.270 182.270 C 69.177 183.271,69.706 184.185,70.141 185.500 C 70.700 187.191,72.096 189.067,72.796 189.067 C 72.919 189.067,73.342 189.910,73.736 190.941 C 74.306 192.432,74.722 193.046,75.770 193.941 C 76.495 194.560,77.672 195.972,78.385 197.080 C 79.099 198.187,80.345 199.658,81.154 200.349 C 82.149 201.199,82.772 201.992,83.082 202.802 C 83.515 203.936,84.846 205.071,86.439 205.665 C 86.680 205.755,87.136 206.288,87.451 206.849 C 87.828 207.520,88.637 208.251,89.812 208.986 C 90.796 209.600,92.425 210.889,93.433 211.851 C 94.441 212.813,95.367 213.600,95.490 213.600 C 96.528 213.600,98.644 214.768,98.952 215.511 C 99.302 216.356,100.217 216.878,103.314 218.003 C 104.127 218.298,105.092 218.956,105.847 219.730 C 107.054 220.968,107.754 221.312,110.956 222.236 C 112.020 222.543,112.781 222.998,113.624 223.828 C 115.006 225.191,116.083 225.556,121.200 226.396 C 123.107 226.709,124.967 227.121,125.333 227.312 C 125.700 227.504,126.559 227.981,127.243 228.373 C 130.773 230.397,130.919 230.401,204.983 230.391 C 281.414 230.380,281.084 230.389,284.820 228.164 C 286.640 227.080,288.398 226.542,291.467 226.130 C 294.056 225.782,296.045 224.857,296.742 223.677 C 297.043 223.168,297.539 222.831,298.261 222.645 C 303.915 221.192,304.748 220.809,305.441 219.351 C 305.806 218.580,306.072 218.400,307.202 218.158 C 309.484 217.668,311.804 216.457,312.751 215.261 C 313.322 214.541,314.041 214.015,314.874 213.709 C 316.289 213.188,317.457 212.232,318.039 211.117 C 318.281 210.653,318.907 210.165,319.682 209.834 C 321.242 209.167,322.300 208.177,322.680 207.028 C 322.917 206.307,323.178 206.085,324.086 205.827 C 325.389 205.457,326.480 204.534,327.268 203.133 C 327.578 202.583,327.929 202.133,328.048 202.133 C 328.588 202.133,330.411 200.122,330.804 199.092 C 331.144 198.204,331.470 197.850,332.280 197.493 C 333.437 196.982,334.144 196.122,334.697 194.551 C 334.934 193.880,335.351 193.352,335.855 193.085 C 337.573 192.174,338.506 190.744,339.062 188.166 C 339.153 187.744,339.865 186.724,340.644 185.899 C 342.263 184.186,342.493 183.801,343.161 181.676 C 343.493 180.618,343.985 179.796,344.727 179.061 C 345.768 178.028,346.933 175.275,346.933 173.848 C 346.933 172.931,348.031 170.540,348.837 169.702 C 349.797 168.704,350.496 166.207,350.921 162.267 C 351.445 157.394,352.003 154.686,352.691 153.672 C 355.732 149.190,355.532 122.021,352.431 118.413 C 351.781 117.658,351.431 116.168,351.067 112.619 C 350.627 108.338,350.049 106.305,348.916 105.067 C 347.969 104.031,347.708 103.316,347.071 100.000 C 346.489 96.973,345.804 95.599,344.508 94.859 C 343.937 94.533,343.470 94.118,343.469 93.937 C 343.458 92.220,341.767 88.487,340.496 87.376 C 339.382 86.401,339.101 85.974,338.912 84.962 C 338.642 83.512,337.827 82.320,336.622 81.609 C 336.144 81.327,335.583 80.689,335.375 80.192 C 334.775 78.756,332.822 76.044,331.860 75.310 C 331.376 74.941,330.534 73.939,329.990 73.084 C 329.445 72.230,328.410 71.090,327.689 70.552 C 326.969 70.014,326.028 69.003,325.598 68.305 C 324.972 67.287,324.392 66.801,322.675 65.855 C 321.497 65.206,320.533 64.590,320.533 64.487 C 320.533 63.982,316.938 61.309,315.911 61.050 C 315.021 60.826,314.677 60.562,314.260 59.783 C 313.727 58.789,312.132 57.779,310.609 57.473 C 310.202 57.391,309.151 56.591,308.209 55.645 C 306.488 53.917,306.451 53.898,302.443 52.811 C 301.650 52.597,300.933 52.119,300.166 51.296 C 299.093 50.143,298.939 50.073,296.390 49.575 C 292.674 48.850,291.393 48.378,290.273 47.322 C 288.688 45.827,283.938 44.800,278.610 44.800 C 276.795 44.800,273.941 44.142,273.312 43.577 C 273.033 43.327,272.256 43.200,271.009 43.200 C 269.438 43.200,268.823 43.056,267.297 42.333 L 265.467 41.467 206.800 41.418 C 149.113 41.371,148.100 41.379,146.133 41.898 M266.508 44.400 C 267.838 44.901,268.792 45.067,270.339 45.067 C 271.473 45.067,273.300 45.237,274.400 45.445 C 275.500 45.654,277.540 45.905,278.933 46.004 C 282.884 46.286,285.153 46.841,287.720 48.155 C 288.994 48.808,290.749 49.471,291.618 49.628 C 294.622 50.174,296.328 50.772,297.777 51.786 C 299.635 53.088,300.765 53.650,303.006 54.387 C 304.229 54.789,305.262 55.371,306.206 56.190 C 306.973 56.854,308.496 57.813,309.592 58.319 C 310.687 58.825,312.075 59.693,312.675 60.246 C 313.276 60.800,314.359 61.596,315.083 62.016 C 315.808 62.436,316.940 63.363,317.600 64.076 C 318.267 64.796,319.848 65.976,321.161 66.735 C 322.958 67.772,323.774 68.439,324.572 69.519 C 325.150 70.301,326.105 71.260,326.695 71.651 C 327.303 72.053,328.268 73.133,328.920 74.141 C 329.553 75.120,330.793 76.718,331.675 77.691 C 332.557 78.664,333.651 80.120,334.107 80.927 C 334.612 81.822,335.339 82.650,335.973 83.050 C 336.887 83.627,338.933 87.014,338.933 87.949 C 338.933 88.057,339.276 88.562,339.694 89.073 C 340.589 90.163,341.123 91.162,342.119 93.610 C 342.521 94.598,343.335 95.990,343.926 96.703 C 345.027 98.030,345.666 99.669,346.538 103.396 C 346.806 104.542,347.417 106.036,348.044 107.075 C 349.398 109.320,349.864 110.667,349.876 112.367 C 349.881 113.118,350.065 114.693,350.284 115.867 C 350.503 117.040,350.917 119.477,351.204 121.282 C 351.492 123.087,351.908 125.264,352.130 126.120 C 352.352 126.976,352.541 128.620,352.550 129.772 C 352.559 130.924,352.712 132.707,352.890 133.733 C 353.143 135.195,353.144 136.294,352.891 138.800 C 352.714 140.560,352.561 143.311,352.551 144.913 C 352.536 147.314,352.413 148.174,351.852 149.802 C 351.467 150.916,350.884 153.771,350.513 156.355 C 350.152 158.873,349.739 161.745,349.595 162.737 C 349.424 163.917,348.970 165.254,348.283 166.604 C 347.705 167.738,346.735 170.160,346.127 171.985 C 345.394 174.186,344.676 175.787,343.992 176.742 C 343.425 177.534,342.636 179.158,342.239 180.351 C 341.672 182.052,341.242 182.810,340.250 183.860 C 339.346 184.818,338.704 185.885,338.001 187.600 C 337.251 189.431,336.683 190.348,335.604 191.467 C 334.826 192.273,333.998 193.315,333.764 193.782 C 333.530 194.249,332.611 195.269,331.723 196.049 C 330.835 196.829,329.757 198.013,329.327 198.681 C 328.897 199.349,328.066 200.297,327.480 200.788 C 326.895 201.280,326.101 202.137,325.715 202.693 C 325.329 203.250,324.274 204.187,323.370 204.776 C 322.466 205.365,321.507 206.219,321.237 206.675 C 320.968 207.131,319.940 208.022,318.951 208.655 C 317.916 209.319,316.922 210.201,316.606 210.737 C 316.211 211.406,315.566 211.900,314.315 212.491 C 313.357 212.944,311.963 213.856,311.217 214.518 C 309.830 215.750,308.564 216.531,307.947 216.536 C 307.244 216.541,304.744 217.882,303.524 218.908 C 302.594 219.689,301.504 220.219,299.333 220.945 C 296.274 221.969,295.092 222.554,294.285 223.447 C 293.690 224.103,291.524 224.804,287.236 225.726 C 285.423 226.116,283.323 226.715,282.570 227.056 C 280.629 227.934,277.931 228.543,274.533 228.868 C 270.270 229.276,143.011 229.464,139.067 229.068 C 134.940 228.654,130.853 227.816,128.667 226.936 C 127.640 226.522,125.480 225.923,123.867 225.604 C 119.522 224.745,118.314 224.345,115.353 222.789 C 113.876 222.013,112.046 221.197,111.288 220.976 C 109.461 220.444,108.885 220.123,107.519 218.876 C 106.339 217.800,103.972 216.541,103.120 216.536 C 102.347 216.532,101.275 215.856,100.163 214.673 C 99.593 214.066,98.318 213.162,97.330 212.665 C 96.326 212.160,95.136 211.298,94.633 210.713 C 94.138 210.138,92.953 209.151,92.000 208.520 C 91.047 207.890,89.427 206.636,88.400 205.735 C 87.373 204.834,86.149 203.830,85.679 203.506 C 84.938 202.993,83.200 200.785,83.200 200.356 C 83.200 200.273,82.539 199.491,81.732 198.619 C 80.924 197.747,79.796 196.351,79.224 195.517 C 78.652 194.682,77.622 193.460,76.936 192.800 C 76.249 192.140,75.344 190.926,74.924 190.101 C 74.504 189.277,73.740 188.206,73.226 187.721 C 72.713 187.237,72.033 186.231,71.716 185.487 C 70.467 182.553,69.739 181.141,68.771 179.776 C 68.154 178.906,67.387 177.227,66.797 175.458 C 66.259 173.843,65.355 171.824,64.751 170.890 C 63.575 169.071,63.152 167.875,62.538 164.644 C 62.025 161.943,60.891 157.468,60.564 156.858 C 57.673 151.456,57.729 123.243,60.644 116.702 C 60.848 116.242,61.082 115.447,61.163 114.933 C 61.243 114.420,61.708 112.136,62.196 109.857 C 63.074 105.754,63.176 105.497,65.169 102.355 C 65.445 101.920,66.027 100.342,66.463 98.848 C 67.376 95.720,67.766 94.884,68.838 93.751 C 69.559 92.991,69.911 92.353,71.465 88.992 C 71.790 88.291,72.453 87.242,72.938 86.661 C 73.424 86.079,74.363 84.613,75.025 83.402 C 75.688 82.191,76.726 80.720,77.333 80.133 C 77.939 79.547,78.838 78.406,79.330 77.599 C 79.832 76.777,80.762 75.753,81.447 75.271 C 82.119 74.797,82.902 74.017,83.187 73.538 C 83.471 73.059,84.401 72.118,85.252 71.447 C 86.104 70.776,87.243 69.643,87.784 68.930 C 88.326 68.216,89.181 67.384,89.685 67.080 C 90.189 66.775,91.429 65.748,92.442 64.797 C 93.454 63.845,95.059 62.594,96.008 62.017 C 96.957 61.439,98.333 60.519,99.067 59.973 C 99.800 59.426,101.100 58.671,101.954 58.295 C 102.935 57.863,103.969 57.119,104.754 56.278 C 105.862 55.093,106.309 54.840,108.800 53.988 C 110.340 53.462,112.229 52.618,112.998 52.114 C 114.693 51.002,117.617 49.867,118.783 49.867 C 119.999 49.867,122.252 49.161,124.267 48.149 C 127.389 46.581,128.658 46.302,136.400 45.489 C 138.453 45.273,141.153 45.018,142.400 44.922 C 143.647 44.827,145.327 44.532,146.133 44.268 C 147.527 43.812,150.529 43.787,206.168 43.761 L 264.737 43.733 266.508 44.400 M146.017 78.164 C 145.146 78.445,143.286 78.801,141.883 78.955 C 138.113 79.368,134.764 80.163,133.368 80.976 C 130.840 82.448,129.241 83.200,128.639 83.200 C 127.492 83.200,125.121 84.280,123.288 85.638 C 122.286 86.380,120.671 87.389,119.699 87.881 C 118.387 88.544,117.674 89.124,116.936 90.130 C 116.388 90.876,115.498 91.712,114.959 91.987 C 113.613 92.674,109.615 96.652,108.466 98.448 C 107.948 99.258,107.100 100.183,106.583 100.503 C 105.859 100.950,105.458 101.526,104.838 103.009 C 103.643 105.867,103.303 106.468,102.392 107.340 C 101.223 108.458,100.626 109.511,99.987 111.578 C 99.682 112.566,98.980 114.355,98.426 115.554 C 96.238 120.292,95.208 124.916,95.202 130.024 C 95.201 131.064,95.021 132.504,94.803 133.224 C 94.353 134.707,94.291 137.217,94.665 138.800 C 94.803 139.387,95.049 141.667,95.210 143.867 C 95.581 148.917,96.853 155.422,97.792 157.067 C 98.957 159.110,99.380 160.050,100.252 162.533 C 100.896 164.370,101.364 165.215,102.244 166.133 C 102.876 166.793,103.920 168.336,104.563 169.561 C 105.299 170.963,105.988 171.920,106.424 172.146 C 106.837 172.359,107.676 173.474,108.502 174.905 C 109.397 176.454,110.286 177.613,111.011 178.173 C 111.628 178.650,113.033 179.888,114.133 180.924 C 115.233 181.960,116.733 183.154,117.467 183.577 C 118.200 184.001,119.366 184.870,120.058 185.510 C 120.751 186.149,122.239 187.093,123.365 187.606 C 124.492 188.120,125.922 189.008,126.543 189.581 C 128.067 190.985,128.783 191.320,132.310 192.277 C 133.973 192.728,135.741 193.336,136.238 193.629 C 138.487 194.950,142.031 195.733,145.759 195.733 C 147.112 195.733,149.160 195.913,150.310 196.133 C 152.857 196.621,253.624 196.731,259.333 196.253 C 261.093 196.105,264.153 195.883,266.133 195.759 C 269.884 195.525,271.142 195.223,275.754 193.448 C 277.013 192.964,279.053 192.311,280.288 191.996 C 282.639 191.397,283.681 190.885,285.489 189.441 C 286.087 188.962,287.601 188.084,288.853 187.490 C 290.550 186.683,291.381 186.101,292.121 185.198 C 292.666 184.532,293.612 183.734,294.223 183.424 C 296.509 182.263,303.212 175.631,304.378 173.375 C 304.612 172.923,305.439 171.912,306.217 171.129 C 307.425 169.911,307.757 169.338,308.504 167.185 C 309.092 165.492,309.717 164.262,310.412 163.432 C 311.745 161.838,312.113 160.995,312.943 157.633 C 313.319 156.111,313.984 154.158,314.420 153.293 C 317.312 147.565,317.542 126.410,314.771 120.975 C 313.807 119.083,312.999 116.714,312.673 114.822 C 312.349 112.948,311.415 110.865,310.399 109.755 C 309.851 109.156,308.898 107.647,308.280 106.400 C 307.662 105.153,306.997 103.953,306.804 103.733 C 306.610 103.513,305.722 102.228,304.830 100.876 C 303.080 98.223,298.438 93.324,296.667 92.259 C 296.080 91.907,294.747 90.815,293.705 89.832 C 292.663 88.850,291.059 87.667,290.140 87.203 C 289.221 86.739,288.202 86.099,287.876 85.780 C 286.555 84.486,286.144 84.249,283.723 83.380 C 282.335 82.883,280.360 82.050,279.333 81.529 C 276.096 79.889,275.402 79.724,263.867 77.855 C 260.576 77.322,147.709 77.618,146.017 78.164 M270.031 80.216 C 273.763 80.581,275.269 81.037,276.421 82.154 C 277.058 82.771,277.907 83.129,280.156 83.729 C 284.370 84.854,285.544 85.366,286.135 86.339 C 286.749 87.348,287.485 87.842,289.061 88.304 C 289.919 88.556,290.754 89.145,292.022 90.394 C 294.006 92.347,293.921 92.277,296.189 93.815 C 297.099 94.433,298.200 95.447,298.635 96.069 C 299.071 96.691,300.094 97.837,300.911 98.615 C 302.447 100.079,303.801 101.863,304.098 102.813 C 304.192 103.114,304.852 103.954,305.564 104.680 C 306.608 105.744,306.970 106.369,307.428 107.901 C 307.884 109.429,308.261 110.082,309.353 111.234 C 310.980 112.953,311.354 113.825,311.738 116.800 C 312.090 119.532,312.389 120.812,313.047 122.400 C 315.600 128.559,315.733 129.309,315.733 137.512 C 315.733 144.444,315.442 146.721,314.410 147.867 C 313.320 149.076,312.589 151.538,311.476 157.748 C 310.907 160.924,310.889 160.969,309.977 161.460 C 308.852 162.066,308.182 163.112,307.624 165.133 C 307.391 165.977,307.017 167.327,306.793 168.133 C 306.568 168.940,306.234 169.600,306.049 169.600 C 305.429 169.600,304.012 171.054,303.270 172.453 C 302.864 173.216,302.114 174.120,301.600 174.463 C 301.087 174.806,300.427 175.492,300.133 175.988 C 299.451 177.142,297.941 178.651,296.788 179.333 C 296.292 179.627,295.538 180.386,295.112 181.020 C 294.686 181.655,294.141 182.243,293.902 182.326 C 291.871 183.037,291.122 183.556,290.705 184.546 C 290.271 185.577,289.787 185.902,288.162 186.260 C 286.320 186.665,284.004 187.963,283.451 188.901 C 282.770 190.054,281.820 190.412,277.362 191.195 C 273.326 191.904,272.922 192.050,271.690 193.247 C 270.044 194.847,272.040 194.800,205.067 194.800 C 138.240 194.800,141.179 194.872,139.467 193.201 C 138.315 192.076,136.252 191.345,133.467 191.076 C 131.680 190.904,128.800 190.006,128.800 189.622 C 128.800 188.855,126.397 187.124,124.596 186.594 C 123.520 186.277,122.468 185.834,122.260 185.609 C 122.051 185.384,121.505 184.750,121.046 184.200 C 120.587 183.650,120.007 183.200,119.758 183.200 C 119.035 183.200,116.811 181.664,116.554 180.987 C 116.424 180.647,115.497 179.703,114.493 178.890 C 111.900 176.791,110.445 175.269,109.564 173.733 C 108.511 171.897,108.042 171.369,106.758 170.576 C 105.799 169.984,105.610 169.708,105.358 168.532 C 104.961 166.679,104.463 165.801,103.275 164.856 C 102.224 164.021,102.239 164.058,100.229 157.605 C 99.888 156.508,99.208 155.086,98.719 154.445 C 95.624 150.391,95.583 122.782,98.667 119.600 C 99.692 118.542,100.655 115.614,101.439 111.176 C 101.612 110.194,101.864 109.871,103.440 108.611 C 104.306 107.918,105.600 105.529,105.600 104.623 C 105.600 103.335,106.234 102.142,107.063 101.868 C 108.179 101.500,109.173 100.427,109.834 98.880 C 110.238 97.936,110.631 97.493,111.429 97.086 C 112.516 96.531,113.385 95.534,113.720 94.456 C 113.847 94.047,114.471 93.580,115.615 93.040 C 117.262 92.262,118.141 91.410,118.503 90.241 C 118.616 89.877,119.071 89.563,119.805 89.344 C 121.810 88.743,124.376 87.284,125.360 86.185 C 125.965 85.509,126.705 85.008,127.360 84.832 C 127.932 84.679,129.600 84.233,131.067 83.841 C 133.171 83.280,133.930 82.943,134.667 82.244 C 135.814 81.155,139.189 80.277,142.344 80.247 C 143.475 80.236,144.940 80.130,145.600 80.011 C 147.605 79.651,266.241 79.846,270.031 80.216 " stroke="none" fill="#703c34" fill-rule="evenodd"></path><path id="path4" d="M142.368 40.268 C 136.386 40.609,134.384 41.227,133.297 43.069 C 132.796 43.917,132.637 44.001,131.507 44.010 C 122.946 44.077,120.387 44.599,118.359 46.693 L 116.852 48.250 114.626 48.419 C 109.820 48.783,107.630 49.658,107.315 51.338 C 107.132 52.311,107.211 52.275,104.448 52.638 C 103.145 52.810,100.628 54.475,99.959 55.610 C 99.539 56.322,99.182 56.544,98.054 56.797 C 95.156 57.445,94.697 57.832,94.415 59.867 L 94.267 60.933 92.667 61.087 C 90.726 61.273,90.205 61.486,89.984 62.184 C 89.753 62.912,87.831 64.800,87.321 64.800 C 86.779 64.800,85.600 65.991,85.600 66.539 C 85.600 67.061,83.903 68.745,82.800 69.318 C 82.314 69.570,81.889 70.075,81.718 70.606 C 81.563 71.085,81.143 71.678,80.785 71.923 C 80.426 72.168,80.037 72.525,79.920 72.717 C 79.803 72.909,79.467 73.067,79.175 73.067 C 78.545 73.067,77.333 74.199,77.333 74.788 C 77.333 75.292,75.449 77.218,74.733 77.445 C 74.128 77.638,73.700 78.471,73.468 79.910 C 73.131 81.997,73.108 82.036,72.063 82.350 C 70.483 82.823,69.992 83.464,69.451 85.762 C 68.986 87.736,67.563 89.867,66.708 89.867 C 66.053 89.867,65.511 91.102,65.104 93.519 L 64.664 96.133 63.170 97.600 C 61.364 99.372,61.071 100.160,61.051 103.306 C 61.029 106.865,60.839 107.587,59.733 108.317 C 58.458 109.159,57.400 111.365,57.071 113.867 C 56.298 119.744,56.540 158.620,57.366 161.145 C 57.792 162.447,58.764 163.411,59.859 163.616 L 60.724 163.779 60.894 165.956 C 60.987 167.153,61.064 169.070,61.065 170.215 C 61.068 173.948,61.939 175.789,63.872 176.152 C 64.874 176.340,65.057 176.752,65.063 178.830 C 65.072 182.363,65.875 184.020,67.851 184.586 C 69.255 184.988,69.148 184.831,69.351 186.794 C 69.544 188.662,70.746 190.849,72.240 192.050 C 72.717 192.433,73.235 193.301,73.611 194.346 C 74.270 196.182,75.032 196.961,76.425 197.222 C 77.213 197.370,77.365 197.533,77.613 198.496 C 78.096 200.365,78.132 200.450,78.652 200.920 C 78.930 201.172,79.737 201.526,80.446 201.706 C 81.727 202.033,81.734 202.042,81.949 203.391 C 82.212 205.041,82.679 205.500,84.383 205.786 L 85.694 206.006 86.007 207.394 C 86.471 209.454,86.603 209.558,89.632 210.236 C 90.192 210.362,90.363 210.591,90.492 211.396 C 90.723 212.832,91.324 213.540,92.610 213.892 C 94.498 214.410,95.358 214.883,95.675 215.579 C 95.842 215.945,96.474 216.520,97.079 216.856 C 97.684 217.192,98.559 217.676,99.023 217.933 C 99.487 218.189,100.407 218.401,101.067 218.404 C 102.556 218.409,102.704 218.518,103.200 219.976 C 103.850 221.886,104.862 222.332,109.635 222.813 L 111.137 222.964 111.308 224.033 C 111.618 225.975,113.425 226.933,116.774 226.933 C 120.342 226.933,121.208 227.180,122.672 228.614 C 125.374 231.260,122.616 231.175,205.467 231.171 C 290.972 231.168,287.945 231.284,288.671 227.981 C 288.808 227.358,288.986 227.199,289.555 227.194 C 296.096 227.136,298.942 226.154,300.667 223.359 C 300.848 223.065,301.588 222.846,302.981 222.673 C 305.362 222.376,307.682 221.102,308.565 219.606 C 309.026 218.824,309.290 218.685,310.872 218.386 C 312.959 217.993,313.992 217.159,314.277 215.638 C 314.469 214.613,314.531 214.578,316.618 214.298 C 317.861 214.131,320.406 212.489,321.041 211.445 C 321.514 210.667,322.571 209.871,324.340 208.961 C 324.991 208.626,325.511 208.069,325.875 207.315 C 326.532 205.959,326.799 205.719,327.914 205.481 C 328.998 205.249,330.049 204.197,330.279 203.114 C 330.512 202.017,331.011 201.472,332.397 200.801 C 333.520 200.258,335.458 197.256,335.471 196.039 C 335.477 195.532,337.377 193.867,337.949 193.867 C 338.579 193.867,338.889 193.273,339.066 191.727 C 339.354 189.201,339.382 189.142,340.396 188.952 C 342.186 188.616,342.849 187.616,343.667 184.017 C 343.809 183.392,345.959 181.067,346.396 181.067 C 347.052 181.067,347.859 176.722,347.994 172.467 C 347.997 172.357,348.399 172.267,348.887 172.267 C 350.919 172.267,351.441 170.833,351.753 164.400 C 351.959 160.172,352.071 159.289,352.435 159.067 C 355.818 156.998,356.120 154.817,355.924 133.867 C 355.761 116.523,355.743 116.415,352.868 115.840 L 352.091 115.685 351.795 110.442 C 351.447 104.272,351.287 103.679,349.465 101.768 L 348.081 100.315 347.788 97.740 C 347.457 94.822,346.352 92.692,344.647 91.686 C 343.903 91.248,343.733 90.962,343.589 89.915 C 343.221 87.234,342.553 85.600,341.825 85.600 C 341.013 85.600,339.489 83.412,339.054 81.624 C 338.532 79.475,337.761 78.504,336.372 78.244 C 335.590 78.097,335.431 77.929,335.172 76.971 C 334.460 74.338,334.272 74.136,331.874 73.427 C 331.205 73.229,331.046 73.007,330.850 71.996 C 330.545 70.423,329.833 69.700,328.316 69.423 C 327.082 69.198,327.078 69.194,326.856 67.865 C 326.578 66.207,325.865 65.421,324.438 65.199 C 322.567 64.909,322.475 64.845,322.293 63.708 C 322.077 62.352,321.159 61.418,319.830 61.200 C 318.208 60.935,317.926 60.744,317.265 59.467 C 316.565 58.116,314.841 57.087,312.939 56.886 C 310.180 56.594,310.191 56.600,310.000 55.467 C 309.662 53.466,308.760 52.848,305.496 52.381 C 304.370 52.220,303.987 51.987,302.686 50.665 C 301.080 49.034,299.813 48.536,297.254 48.531 C 294.045 48.524,293.404 48.297,293.091 47.053 C 292.509 44.742,291.207 44.389,282.223 44.109 L 276.312 43.925 276.153 43.076 C 275.819 41.297,274.732 40.696,271.384 40.443 C 267.719 40.165,147.056 40.002,142.368 40.268 M267.297 42.333 C 268.823 43.056,269.438 43.200,271.009 43.200 C 272.256 43.200,273.033 43.327,273.312 43.577 C 273.941 44.142,276.795 44.800,278.610 44.800 C 283.938 44.800,288.688 45.827,290.273 47.322 C 291.393 48.378,292.674 48.850,296.390 49.575 C 298.939 50.073,299.093 50.143,300.166 51.296 C 300.933 52.119,301.650 52.597,302.443 52.811 C 306.451 53.898,306.488 53.917,308.209 55.645 C 309.151 56.591,310.202 57.391,310.609 57.473 C 312.132 57.779,313.727 58.789,314.260 59.783 C 314.677 60.562,315.021 60.826,315.911 61.050 C 316.938 61.309,320.533 63.982,320.533 64.487 C 320.533 64.590,321.497 65.206,322.675 65.855 C 324.392 66.801,324.972 67.287,325.598 68.305 C 326.028 69.003,326.969 70.014,327.689 70.552 C 328.410 71.090,329.445 72.230,329.990 73.084 C 330.534 73.939,331.376 74.941,331.860 75.310 C 332.822 76.044,334.775 78.756,335.375 80.192 C 335.583 80.689,336.144 81.327,336.622 81.609 C 337.827 82.320,338.642 83.512,338.912 84.962 C 339.101 85.974,339.382 86.401,340.496 87.376 C 341.767 88.487,343.458 92.220,343.469 93.937 C 343.470 94.118,343.937 94.533,344.508 94.859 C 345.804 95.599,346.489 96.973,347.071 100.000 C 347.708 103.316,347.969 104.031,348.916 105.067 C 350.049 106.305,350.627 108.338,351.067 112.619 C 351.431 116.168,351.781 117.658,352.431 118.413 C 355.532 122.021,355.732 149.190,352.691 153.672 C 352.003 154.686,351.445 157.394,350.921 162.267 C 350.496 166.207,349.797 168.704,348.837 169.702 C 348.031 170.540,346.933 172.931,346.933 173.848 C 346.933 175.275,345.768 178.028,344.727 179.061 C 343.985 179.796,343.493 180.618,343.161 181.676 C 342.493 183.801,342.263 184.186,340.644 185.899 C 339.865 186.724,339.153 187.744,339.062 188.166 C 338.506 190.744,337.573 192.174,335.855 193.085 C 335.351 193.352,334.934 193.880,334.697 194.551 C 334.144 196.122,333.437 196.982,332.280 197.493 C 331.470 197.850,331.144 198.204,330.804 199.092 C 330.411 200.122,328.588 202.133,328.048 202.133 C 327.929 202.133,327.578 202.583,327.268 203.133 C 326.480 204.534,325.389 205.457,324.086 205.827 C 323.178 206.085,322.917 206.307,322.680 207.028 C 322.300 208.177,321.242 209.167,319.682 209.834 C 318.907 210.165,318.281 210.653,318.039 211.117 C 317.457 212.232,316.289 213.188,314.874 213.709 C 314.041 214.015,313.322 214.541,312.751 215.261 C 311.804 216.457,309.484 217.668,307.202 218.158 C 306.072 218.400,305.806 218.580,305.441 219.351 C 304.748 220.809,303.915 221.192,298.261 222.645 C 297.539 222.831,297.043 223.168,296.742 223.677 C 296.045 224.857,294.056 225.782,291.467 226.130 C 288.398 226.542,286.640 227.080,284.820 228.164 C 281.084 230.389,281.414 230.380,204.983 230.391 C 130.919 230.401,130.773 230.397,127.243 228.373 C 126.559 227.981,125.700 227.504,125.333 227.312 C 124.967 227.121,123.107 226.709,121.200 226.396 C 116.083 225.556,115.006 225.191,113.624 223.828 C 112.781 222.998,112.020 222.543,110.956 222.236 C 107.754 221.312,107.054 220.968,105.847 219.730 C 105.092 218.956,104.127 218.298,103.314 218.003 C 100.217 216.878,99.302 216.356,98.952 215.511 C 98.644 214.768,96.528 213.600,95.490 213.600 C 95.367 213.600,94.441 212.813,93.433 211.851 C 92.425 210.889,90.796 209.600,89.812 208.986 C 88.637 208.251,87.828 207.520,87.451 206.849 C 87.136 206.288,86.680 205.755,86.439 205.665 C 84.846 205.071,83.515 203.936,83.082 202.802 C 82.772 201.992,82.149 201.199,81.154 200.349 C 80.345 199.658,79.099 198.187,78.385 197.080 C 77.672 195.972,76.495 194.560,75.770 193.941 C 74.722 193.046,74.306 192.432,73.736 190.941 C 73.342 189.910,72.919 189.067,72.796 189.067 C 72.096 189.067,70.700 187.191,70.141 185.500 C 69.706 184.185,69.177 183.271,68.270 182.270 C 66.973 180.838,66.738 180.320,65.446 176.062 C 64.830 174.031,64.516 173.423,63.687 172.656 C 62.461 171.522,62.032 170.183,61.470 165.733 C 60.942 161.551,60.938 161.537,60.006 160.539 C 57.934 158.322,57.464 153.889,57.474 136.667 C 57.484 119.808,57.929 115.489,59.929 112.870 C 60.759 111.783,60.904 111.359,61.095 109.472 C 61.544 105.044,62.445 102.386,64.137 100.501 C 64.818 99.742,65.123 99.015,65.564 97.098 C 66.239 94.169,66.879 92.838,68.101 91.826 C 69.010 91.072,69.423 90.332,70.251 87.972 C 70.488 87.296,71.322 85.940,72.104 84.958 C 72.887 83.976,73.857 82.489,74.261 81.653 C 75.093 79.932,75.819 79.046,76.830 78.520 C 77.233 78.311,77.809 77.563,78.197 76.746 C 78.959 75.142,79.428 74.662,80.916 73.961 C 81.673 73.604,82.165 73.095,82.683 72.133 C 83.226 71.124,83.717 70.634,84.700 70.118 C 85.642 69.624,86.136 69.146,86.494 68.385 C 87.173 66.941,87.672 66.430,89.047 65.768 C 89.780 65.415,90.544 64.745,91.061 64.000 C 91.797 62.940,93.528 61.691,94.975 61.175 C 95.218 61.088,95.795 60.547,96.258 59.971 C 97.121 58.897,99.331 57.612,101.207 57.093 C 102.582 56.713,102.771 56.572,103.309 55.522 C 103.873 54.420,104.798 53.855,107.554 52.926 C 109.064 52.417,110.077 51.878,110.851 51.171 C 111.466 50.610,112.246 50.098,112.584 50.032 C 119.237 48.739,120.473 48.382,121.467 47.465 C 123.010 46.041,124.597 45.541,129.067 45.075 C 134.994 44.457,138.293 43.963,138.965 43.594 C 139.349 43.384,140.669 43.034,141.899 42.818 C 143.128 42.602,145.033 42.188,146.133 41.898 C 148.100 41.379,149.113 41.371,206.800 41.418 L 265.467 41.467 267.297 42.333 M145.600 80.011 C 144.940 80.130,143.475 80.236,142.344 80.247 C 139.189 80.277,135.814 81.155,134.667 82.244 C 133.930 82.943,133.171 83.280,131.067 83.841 C 129.600 84.233,127.932 84.679,127.360 84.832 C 126.705 85.008,125.965 85.509,125.360 86.185 C 124.376 87.284,121.810 88.743,119.805 89.344 C 119.071 89.563,118.616 89.877,118.503 90.241 C 118.141 91.410,117.262 92.262,115.615 93.040 C 114.471 93.580,113.847 94.047,113.720 94.456 C 113.385 95.534,112.516 96.531,111.429 97.086 C 110.631 97.493,110.238 97.936,109.834 98.880 C 109.173 100.427,108.179 101.500,107.063 101.868 C 106.234 102.142,105.600 103.335,105.600 104.623 C 105.600 105.529,104.306 107.918,103.440 108.611 C 101.864 109.871,101.612 110.194,101.439 111.176 C 100.655 115.614,99.692 118.542,98.667 119.600 C 97.342 120.967,97.054 122.284,96.740 128.400 C 96.032 142.233,96.765 151.885,98.719 154.445 C 99.208 155.086,99.888 156.508,100.229 157.605 C 102.239 164.058,102.224 164.021,103.275 164.856 C 104.463 165.801,104.961 166.679,105.358 168.532 C 105.610 169.708,105.799 169.984,106.758 170.576 C 108.042 171.369,108.511 171.897,109.564 173.733 C 110.445 175.269,111.900 176.791,114.493 178.890 C 115.497 179.703,116.424 180.647,116.554 180.987 C 116.811 181.664,119.035 183.200,119.758 183.200 C 120.007 183.200,120.587 183.650,121.046 184.200 C 121.505 184.750,122.051 185.384,122.260 185.609 C 122.468 185.834,123.520 186.277,124.596 186.594 C 126.397 187.124,128.800 188.855,128.800 189.622 C 128.800 190.006,131.680 190.904,133.467 191.076 C 136.252 191.345,138.315 192.076,139.467 193.201 C 141.179 194.872,138.240 194.800,205.067 194.800 C 272.040 194.800,270.044 194.847,271.690 193.247 C 272.922 192.050,273.326 191.904,277.362 191.195 C 281.820 190.412,282.770 190.054,283.451 188.901 C 284.004 187.963,286.320 186.665,288.162 186.260 C 289.787 185.902,290.271 185.577,290.705 184.546 C 291.122 183.556,291.871 183.037,293.902 182.326 C 294.141 182.243,294.686 181.655,295.112 181.020 C 295.538 180.386,296.292 179.627,296.788 179.333 C 297.941 178.651,299.451 177.142,300.133 175.988 C 300.427 175.492,301.087 174.806,301.600 174.463 C 302.114 174.120,302.864 173.216,303.270 172.453 C 304.012 171.054,305.429 169.600,306.049 169.600 C 306.234 169.600,306.568 168.940,306.793 168.133 C 307.017 167.327,307.391 165.977,307.624 165.133 C 308.182 163.112,308.852 162.066,309.977 161.460 C 310.889 160.969,310.907 160.924,311.476 157.748 C 312.589 151.538,313.320 149.076,314.410 147.867 C 315.442 146.721,315.733 144.444,315.733 137.512 C 315.733 129.309,315.600 128.559,313.047 122.400 C 312.389 120.812,312.090 119.532,311.738 116.800 C 311.354 113.825,310.980 112.953,309.353 111.234 C 308.261 110.082,307.884 109.429,307.428 107.901 C 306.970 106.369,306.608 105.744,305.564 104.680 C 304.852 103.954,304.192 103.114,304.098 102.813 C 303.801 101.863,302.447 100.079,300.911 98.615 C 300.094 97.837,299.071 96.691,298.635 96.069 C 298.200 95.447,297.099 94.433,296.189 93.815 C 293.921 92.277,294.006 92.347,292.022 90.394 C 290.754 89.145,289.919 88.556,289.061 88.304 C 287.485 87.842,286.749 87.348,286.135 86.339 C 285.544 85.366,284.370 84.854,280.156 83.729 C 277.907 83.129,277.058 82.771,276.421 82.154 C 275.269 81.037,273.763 80.581,270.031 80.216 C 266.241 79.846,147.605 79.651,145.600 80.011 M270.736 81.239 L 273.555 81.412 273.715 82.263 C 274.044 84.015,275.446 84.731,279.031 84.978 C 282.147 85.192,282.255 85.238,282.999 86.668 C 283.796 88.198,285.471 89.061,288.108 89.299 L 289.967 89.467 290.300 90.776 C 290.718 92.420,291.308 93.013,292.935 93.428 C 294.084 93.722,294.259 93.867,294.580 94.794 C 295.066 96.197,295.618 96.747,296.910 97.116 C 298.399 97.540,298.574 97.714,298.773 98.957 C 298.994 100.341,299.929 101.273,301.319 101.495 C 302.139 101.626,302.435 101.809,302.522 102.235 C 303.164 105.406,303.227 105.552,304.155 105.992 C 304.656 106.230,305.067 106.527,305.067 106.651 C 305.067 106.776,305.365 107.160,305.729 107.505 C 306.093 107.851,306.396 108.373,306.403 108.667 C 306.468 111.444,307.846 113.750,309.609 114.032 L 310.621 114.194 310.775 116.764 C 311.455 128.171,311.608 128.838,313.782 129.890 L 314.933 130.448 314.933 137.594 L 314.933 144.741 314.030 144.910 C 311.961 145.298,311.293 146.872,311.058 151.908 C 310.795 157.555,310.753 157.763,309.749 158.355 C 308.220 159.258,306.969 161.482,306.672 163.829 C 306.432 165.718,306.333 165.945,305.273 167.024 C 303.638 168.690,302.400 170.380,302.400 170.947 C 302.400 171.216,302.040 171.649,301.600 171.909 C 301.160 172.169,300.800 172.482,300.800 172.605 C 300.800 172.727,300.451 172.949,300.025 173.098 C 299.150 173.403,298.723 174.231,298.447 176.159 L 298.261 177.460 296.845 177.664 C 295.119 177.912,294.491 178.227,294.258 178.959 C 294.026 179.691,292.111 181.600,291.609 181.600 C 291.394 181.600,290.809 181.960,290.307 182.400 C 289.806 182.840,289.223 183.200,289.011 183.200 C 288.585 183.200,287.692 184.091,287.244 184.963 C 287.031 185.377,286.509 185.614,285.277 185.855 C 283.124 186.278,281.905 186.791,281.683 187.368 C 281.587 187.620,281.051 188.283,280.492 188.841 L 279.477 189.856 275.672 190.114 C 270.899 190.439,270.367 190.624,268.421 192.635 L 266.842 194.267 213.221 194.357 C 183.730 194.407,155.861 194.363,151.291 194.260 L 142.981 194.073 142.821 193.217 C 142.451 191.244,139.842 190.151,135.467 190.136 C 131.441 190.122,130.746 189.937,130.569 188.833 C 130.287 187.082,127.961 185.600,125.495 185.600 C 125.068 185.600,122.810 183.497,122.618 182.921 C 122.491 182.539,120.575 181.892,119.528 181.878 C 118.614 181.866,118.356 181.532,118.008 179.911 C 117.817 179.025,116.665 177.867,115.974 177.867 C 114.872 177.867,114.195 177.295,114.023 176.219 C 113.807 174.865,112.860 173.925,111.492 173.707 C 110.382 173.529,110.327 173.457,109.991 171.733 C 109.722 170.351,108.926 169.635,107.441 169.438 C 106.015 169.249,106.096 169.429,105.717 165.600 C 105.445 162.853,104.331 161.333,102.588 161.333 C 102.036 161.333,101.868 160.756,101.861 158.845 C 101.846 154.007,100.428 150.165,98.533 149.824 C 97.684 149.671,97.226 134.938,97.774 125.422 L 97.946 122.445 98.812 122.282 C 100.965 121.878,101.454 120.862,101.869 115.922 L 102.156 112.511 103.211 111.456 C 103.792 110.875,104.378 110.400,104.514 110.400 C 105.094 110.400,105.547 109.525,105.717 108.080 C 105.983 105.815,106.050 105.688,107.306 105.080 C 108.068 104.711,108.624 104.193,108.961 103.540 C 109.875 101.764,110.668 100.714,111.459 100.232 C 111.887 99.972,112.449 99.423,112.707 99.013 C 112.965 98.602,113.512 97.872,113.922 97.391 C 114.331 96.909,114.669 96.309,114.671 96.057 C 114.676 95.600,116.536 93.867,117.021 93.867 C 118.094 93.867,121.098 91.838,121.619 90.761 C 121.967 90.042,122.402 89.552,122.758 89.478 C 123.074 89.412,123.988 89.228,124.789 89.070 C 126.215 88.788,127.189 88.207,127.211 87.625 C 127.261 86.312,128.915 85.397,131.799 85.086 C 136.033 84.630,137.891 83.845,138.568 82.224 C 138.919 81.384,138.985 81.355,140.732 81.264 C 144.102 81.090,267.903 81.066,270.736 81.239 " stroke="none" fill="#443c34" fill-rule="evenodd"></path></g></svg>